<svg xmlns="http://www.w3.org/2000/svg" viewBox="0 0 1280 1280" role="img">
    <polygon points="232.8 969.6 310.3 969.6 310.3 814.4 155.2 814.4 155.2 892 232.8 892 232.8 969.6"/>
    <path d="M-12.2-11.8v1307.6h1304.4V-11.8H-12.2ZM79.1,544.6v-232.3h232.3v271h-77.4v-154.9h-38.8v38.7h-38.7v116.2h-77.4v-38.7ZM388.9,1125.4h-156.1v77.5H0v-543.1h388.9v465.6ZM389,505.9v-193.6h77.4v77.4h77.5v-77.4h77.3v193.6h-38.7v77.4h-116.1v-77.4h-77.4ZM853.6,813.5h-232.6v233.7h77.9v-155h154.7v310.7h-387.2v-543.1h387.2v153.7ZM1280,737.4v77.5h-155.2v77.6h155.2v310.4h-349v-155.2h116.2v-77.6h-116.2v-310.3h349v77.6Z"/>
</svg>
